<svg width="24" height="24" viewBox="0 0 24 24" fill="none" xmlns="http://www.w3.org/2000/svg">
<g clip-path="url(#clip0_512_682)">
<path d="M19.6752 2.7582C18.4081 1.70386 16.9365 0.923366 15.3529 0.465903C13.7694 0.00844079 12.1082 -0.116074 10.4742 0.100204C7.45122 0.492922 4.69104 2.02138 2.75407 4.37521C0.817109 6.72905 -0.151444 9.73182 0.0450764 12.7738C0.241597 15.8158 1.58846 18.669 3.81219 20.7541C6.03592 22.8391 8.96981 23.9997 12.0182 24.0002H19.0002C20.3257 23.9986 21.5966 23.4713 22.5339 22.534C23.4713 21.5966 23.9986 20.3258 24.0002 19.0002V11.3092V11.2462C23.8943 9.61165 23.4562 8.01586 22.7125 6.55642C21.9689 5.09698 20.9354 3.80456 19.6752 2.7582V2.7582ZM8.00015 7.0002H12.0002C12.2654 7.0002 12.5197 7.10556 12.7073 7.2931C12.8948 7.48063 13.0002 7.73499 13.0002 8.00021C13.0002 8.26542 12.8948 8.51978 12.7073 8.70731C12.5197 8.89485 12.2654 9.00021 12.0002 9.00021H8.00015C7.73494 9.00021 7.48058 8.89485 7.29305 8.70731C7.10551 8.51978 7.00015 8.26542 7.00015 8.00021C7.00015 7.73499 7.10551 7.48063 7.29305 7.2931C7.48058 7.10556 7.73494 7.0002 8.00015 7.0002V7.0002ZM16.0002 17.0002H8.00015C7.73494 17.0002 7.48058 16.8949 7.29305 16.7073C7.10551 16.5198 7.00015 16.2654 7.00015 16.0002C7.00015 15.735 7.10551 15.4806 7.29305 15.2931C7.48058 15.1056 7.73494 15.0002 8.00015 15.0002H16.0002C16.2654 15.0002 16.5197 15.1056 16.7073 15.2931C16.8948 15.4806 17.0002 15.735 17.0002 16.0002C17.0002 16.2654 16.8948 16.5198 16.7073 16.7073C16.5197 16.8949 16.2654 17.0002 16.0002 17.0002ZM16.0002 13.0002H8.00015C7.73494 13.0002 7.48058 12.8948 7.29305 12.7073C7.10551 12.5198 7.00015 12.2654 7.00015 12.0002C7.00015 11.735 7.10551 11.4806 7.29305 11.2931C7.48058 11.1056 7.73494 11.0002 8.00015 11.0002H16.0002C16.2654 11.0002 16.5197 11.1056 16.7073 11.2931C16.8948 11.4806 17.0002 11.735 17.0002 12.0002C17.0002 12.2654 16.8948 12.5198 16.7073 12.7073C16.5197 12.8948 16.2654 13.0002 16.0002 13.0002Z" fill="white"/>
</g>
<defs>
<clipPath id="clip0_512_682">
<rect width="24" height="24" fill="white"/>
</clipPath>
</defs>
</svg>
